PathFileType	4	(X/Y/Z)	C:/Users/opensim2020/Desktop/walking_exp_matlab/subject03_walking10_straight_03.trc	
DataRate	CameraRate	NumFrames	NumMarkers	Units	OrigDataRate	OrigDataStartFrame	OrigNumFrames	
100.00	100.00	5	45	mm	100.00	3102	417	
Frame#	Time	LFHD			RFHD			LBHD			RBHD			C7			T10			CLAV			STRN			RBAK			LSHO			LUPA			LELB			LFRM			LWRA			LWRB			LFIN			RSHO			RUPA			RELB			RFRM			RWRA			RWRB			RFIN			LASI			RASI			LPSI			RPSI			LTHI			LKNE			LTIB			LANK			LHEE			LTOE			RTHI			RKNE			RTIB			RANK			RHEE			RTOE			*39			*40			*41			*42			*43			*44			
		X1	Y1	Z1	X2	Y2	Z2	X3	Y3	Z3	X4	Y4	Z4	X5	Y5	Z5	X6	Y6	Z6	X7	Y7	Z7	X8	Y8	Z8	X9	Y9	Z9	X10	Y10	Z10	X11	Y11	Z11	X12	Y12	Z12	X13	Y13	Z13	X14	Y14	Z14	X15	Y15	Z15	X16	Y16	Z16	X17	Y17	Z17	X18	Y18	Z18	X19	Y19	Z19	X20	Y20	Z20	X21	Y21	Z21	X22	Y22	Z22	X23	Y23	Z23	X24	Y24	Z24	X25	Y25	Z25	X26	Y26	Z26	X27	Y27	Z27	X28	Y28	Z28	X29	Y29	Z29	X30	Y30	Z30	X31	Y31	Z31	X32	Y32	Z32	X33	Y33	Z33	X34	Y34	Z34	X35	Y35	Z35	X36	Y36	Z36	X37	Y37	Z37	X38	Y38	Z38	X39	Y39	Z39	X40	Y40	Z40	X41	Y41	Z41	X42	Y42	Z42	X43	Y43	Z43	X44	Y44	Z44	X45	Y45	Z45	

365	3.640	1375.46912	1248.84521	1634.14563	1508.84009	1260.62524	1637.01013	1391.10046	1129.83496	1570.91516	1520.85693	1146.24353	1574.32227	1450.97705	1120.72754	1422.56885	1455.31750	1085.96082	1111.43677	1433.53601	1241.79199	1345.70837	1423.02942	1282.75293	1180.29651	1554.22668	1081.89673	1249.59424	1285.97339	1176.51099	1385.36511	1214.61121	1146.15723	1189.39819	1199.61047	1147.74219	1066.75269	1196.13440	1176.99060	939.95520	1221.05115	1206.15112	825.10559	1176.02747	1175.01501	827.33044	1183.38281	1195.58545	744.99255	1597.66858	1220.85559	1368.67285	1673.18762	1259.43774	1152.28613	1685.89429	1294.28503	1045.40686	1690.98071	1333.56213	914.00238	1654.97253	1372.51038	822.64642	1703.60693	1349.14160	815.67279	1693.49646	1383.78979	749.35468	1320.79993	1232.91321	945.83466	1556.17383	1260.56812	946.19397	1385.08008	1077.36609	965.83331	1533.46130	1096.34668	980.99048	1268.13013	1243.80518	650.22510	1287.88000	1302.22852	479.94736	1298.79968	1199.46814	309.94080	1345.89233	1113.65234	121.26546	1389.16870	1066.23340	99.90372	1356.16772	1239.98438	44.73088	1597.33862	1194.84888	652.86969	1559.69177	1194.29871	473.20795	1561.71204	1139.78223	289.90479	1509.82690	1106.86816	75.77637	1459.19678	1062.94678	43.53168	1490.52380	1248.46045	36.72561	1434.37231	1162.97717	1678.00476															 
366	3.650	1374.57751	1254.86816	1633.62366	1507.91711	1267.04407	1636.69812	1390.58826	1135.93457	1570.64783	1520.35522	1152.66577	1574.25476	1450.89136	1126.81152	1422.36523	1455.17383	1091.94824	1111.16418	1433.17175	1247.66431	1345.36902	1422.89233	1288.55420	1179.94177	1554.72302	1088.23022	1249.66333	1285.68396	1181.60022	1384.66016	1214.50049	1150.33789	1188.83191	1199.69629	1151.28406	1066.14221	1196.33252	1180.63208	939.36444	1224.29626	1208.46057	822.80267	1176.58496	1178.95337	826.76660	1183.95752	1200.20313	744.56030	1597.23792	1227.40149	1368.74341	1672.94287	1267.43726	1152.73206	1685.64954	1303.00244	1046.17139	1690.32275	1343.81897	915.23767	1653.95959	1383.86072	824.66034	1702.61096	1360.56189	817.15063	1692.61182	1396.21790	751.82751	1320.86133	1238.78088	945.85040	1556.18701	1266.12317	945.71539	1385.23682	1083.13647	965.91132	1533.14661	1102.01501	980.70074	1268.03406	1252.10657	650.84344	1288.87000	1312.00146	481.21930	1299.27612	1214.85486	307.61499	1346.06372	1136.89014	115.30145	1389.10938	1090.17847	91.83620	1355.31531	1266.32080	44.19049	1597.08972	1198.84070	652.56732	1559.49829	1196.97058	472.95193	1561.55811	1141.12305	289.97696	1509.82690	1107.28064	76.26881	1459.04846	1063.03467	43.90037	1490.55701	1248.50415	36.67684	1433.00708	1169.41785	1677.60962															 
367	3.660	1373.70227	1261.04480	1633.09045	1506.93921	1273.44958	1636.39514	1390.04089	1142.01062	1570.25195	1519.77808	1159.12354	1574.05396	1450.69019	1132.84155	1422.03772	1455.09229	1097.74097	1110.82532	1432.71399	1253.57825	1344.90247	1422.69861	1294.34753	1179.47522	1554.99634	1094.51465	1249.55933	1285.44727	1186.88708	1383.97583	1214.57288	1154.43738	1188.19702	1199.84705	1154.95398	1065.45154	1196.72327	1184.54492	938.71222	1224.89685	1212.67139	822.38892	1177.53748	1182.76721	825.88281	1184.51563	1204.77344	744.07281	1596.76990	1233.95679	1368.64209	1672.65051	1275.37305	1153.12939	1685.24377	1311.65417	1046.80176	1689.42993	1353.91846	916.29395	1652.54211	1394.76404	826.28351	1701.27588	1371.80554	818.27759	1690.34204	1407.96033	752.86066	1320.69348	1244.79041	945.70929	1556.16052	1271.66187	945.20172	1384.78455	1088.97156	965.57416	1532.81763	1107.51038	980.25818	1267.88806	1260.07813	651.24237	1289.87781	1321.16724	482.05884	1299.66553	1230.26563	305.08353	1345.85217	1160.54468	109.74776	1389.23218	1115.36743	83.98845	1354.51062	1292.74622	43.98589	1596.76184	1202.83337	652.28729	1559.30884	1199.48108	472.68411	1561.23352	1142.37024	289.96799	1509.43494	1107.05518	76.24812	1458.88074	1063.13525	44.22119	1490.69666	1248.63550	36.86226	1433.10681	1175.52148	1677.50000															 
368	3.670	1372.66150	1267.09998	1632.46143	1505.93115	1279.86157	1635.97192	1389.45972	1148.08313	1569.70032	1519.05371	1165.40881	1573.74268	1450.44324	1138.95215	1421.64001	1454.74841	1103.39246	1110.27734	1432.26770	1259.55298	1344.39734	1422.50610	1300.17004	1178.92969	1555.07764	1100.78479	1249.28186	1285.04810	1192.13550	1383.17517	1214.52014	1158.61328	1187.58069	1200.18347	1158.57837	1064.61902	1197.11902	1188.46387	937.95068	1225.58960	1216.90662	821.78326	1178.26721	1186.87000	825.11346	1185.69470	1208.71008	743.38739	1596.23779	1240.49622	1368.46228	1672.29346	1283.27820	1153.38245	1684.77502	1320.21948	1047.32581	1688.11877	1363.65222	917.04175	1651.16895	1405.62122	827.93195	1699.87195	1382.88879	819.39618	1688.49805	1419.77161	754.44531	1320.49365	1250.72803	945.35004	1556.09924	1277.18213	944.73169	1384.23865	1094.97876	965.17194	1532.38513	1113.13000	979.84479	1267.76099	1267.54163	651.32501	1290.76636	1330.21875	482.93872	1299.93188	1245.71814	302.58865	1345.70105	1184.35315	104.02493	1388.76514	1139.92969	76.44413	1353.85730	1319.22705	44.14325	1596.47070	1206.83276	651.92603	1559.16956	1202.21643	472.47495	1561.15417	1143.90894	290.04916	1509.38184	1107.35266	76.60214	1458.64587	1063.10718	44.58178	1490.76782	1248.72717	36.89639																		 
369	3.680	1371.60583	1273.23950	1631.76794	1504.89246	1286.28772	1635.52002	1388.74658	1154.18921	1569.13281	1518.33679	1171.76855	1573.39514	1450.23743	1145.14697	1421.33557	1454.34583	1109.43835	1109.91675	1431.72705	1265.53857	1343.82739	1422.19775	1306.04028	1178.29199	1555.00806	1106.98328	1248.94177	1284.64880	1197.49548	1382.35437	1214.55505	1162.76172	1186.67908	1200.43958	1162.57727	1063.76941	1197.79309	1192.58118	937.15283	1226.35071	1221.18457	821.02448	1179.13086	1191.01099	824.21246	1186.54712	1213.22070	742.69531	1595.69128	1247.02368	1368.19409	1671.67493	1290.95557	1153.40149	1683.88635	1328.56458	1047.55115	1686.98608	1373.44666	917.88300	1649.57153	1416.21545	829.36029	1698.37610	1393.72815	820.50214	1686.59766	1431.33594	755.91766	1320.34094	1256.77795	944.94171	1555.99084	1282.67261	944.19733	1383.47644	1100.53015	964.22717	1531.86353	1118.65112	979.35498	1267.62024	1274.48279	651.13275	1291.53149	1338.56641	483.25830	1300.10339	1261.01660	300.03967	1344.82837	1208.20508	99.16293	1388.63965	1165.32275	69.41416	1353.41870	1345.38159	44.37338	1596.17249	1210.91431	651.57758	1559.01111	1204.99463	472.20322	1560.93433	1145.32959	290.06641	1509.07190	1107.25854	76.69138	1458.49146	1063.17419	44.95755	1490.81628	1248.74646	36.89531																		 
